<?xml version="1.0" standalone="no"?>
<!DOCTYPE svg PUBLIC "-//W3C//DTD SVG 20010904//EN"
 "http://www.w3.org/TR/2001/REC-SVG-20010904/DTD/svg10.dtd">
<svg version="1.0" xmlns="http://www.w3.org/2000/svg"
 width="400.000000pt" height="400.000000pt" viewBox="0 0 400.000000 400.000000"
 preserveAspectRatio="xMidYMid meet">
<metadata>
Created by potrace 1.11, written by Peter Selinger 2001-2013
</metadata>
<g transform="translate(0.000000,400.000000) scale(0.100000,-0.100000)"
fill="#000000" stroke="none">
<path d="M299 3866 c-3 -3 -5 -3732 -2 -3741 2 -6 156 -10 436 -10 l432 0 0
768 0 767 35 1 c48 0 1620 0 1645 0 20 -1 20 -6 20 -768 l0 -768 432 0 c377 0
432 2 435 15 2 8 3 852 3 1875 l0 1860 -430 1 c-237 1 -432 -2 -435 -6 -3 -5
-5 -337 -5 -739 l0 -731 -30 -1 c-358 -6 -1665 -2 -1666 6 -1 6 -2 339 -3 740
l-1 730 -433 1 c-237 1 -433 1 -433 0z"/>
</g>
</svg>
